{"title":"TNA.Destination.X.2012.07.08.HDTV.XviD-FICEK9","uid":7509595,"size":1564803915,"categoryP":"video","categoryS":"tv_shows","magnet":"?xt=urn:btih:a830723efa79d052dbf995e08715a54c5079a4ef&amp;dn=TNA.Destination.X.2012.07.08.HDTV.XviD-FICEK9&amp;tr=udp%3A%2F%2Ftracker.openbittorrent.com%3A80&amp;tr=udp%3A%2F%2Fopen.demonii.com%3A1337&amp;tr=udp%3A%2F%2Ftracker.coppersurfer.tk%3A6969&amp;tr=udp%3A%2F%2Fexodus.desync.com%3A6969","seeders":0,"leechers":0,"uploader":"FICEK9","files":2,"time":1344275784,"description":"      Complete name : TNA.Destination.X.2012.07.08.HDTV.XviD-FICEK9.avi\n      Format : AVI\n      Format/Info : Audio Video Interleave\n      Format profile : OpenDML\n      File size : 1.46 GiB\n      Duration : 2h 49mn\n      Overall bit rate mode : Variable\n      Overall bit rate : 1 234 Kbps\n      Writing application : MEncoder SVN-r30881(20100311-gcc4.3.3)\n      Writing library : MPlayer\n   Video #0\n      ID : 0\n      Format : MPEG-4 Visual\n      Format profile : Advanced Simple@L5\n      Format settings, BVOP : 2\n      Format settings, QPel : No\n      Format settings, GMC : No warppoints\n      Format settings, Matrix : Default (H.263)\n      Codec ID : XVID\n      Codec ID/Hint : XviD\n      Duration : 2h 49mn\n      Bit rate : 1 095 Kbps\n      Width : 624 pixels\n      Height : 352 pixels\n      Display aspect ratio : 16:9\n      Frame rate : 29.970 fps\n      Color space : YUV\n      Chroma subsampling : 4:2:0\n      Bit depth : 8 bits\n      Scan type : Progressive\n      Compression mode : Lossy\n      Bits/(Pixel*Frame) : 0.166\n      Stream size : 1.29 GiB (89%)\n      Writing library : XviD 1.2.1 (UTC 2008-12-04)\n   Audio #1\n      ID : 1\n      Format : MPEG Audio\n      Format version : Version 1\n      Format profile : Layer 3\n      Mode : Joint stereo\n      Codec ID : 55\n      Codec ID/Hint : MP3\n      Duration : 2h 49mn\n      Bit rate mode : Variable\n      Bit rate : 123 Kbps\n      Channel(s) : 2 channels\n      Sampling rate : 48.0 KHz\n      Compression mode : Lossy\n      Stream size : 149 MiB (10%)\n      Alignment : Aligned on interleaves\n      Interleave, duration : 24 ms (0.72 video frame)\n      Interleave, preload duration : 504 ms\n","torrent":{"xt":"urn:btih:a830723efa79d052dbf995e08715a54c5079a4ef","amp;dn":"TNA.Destination.X.2012.07.08.HDTV.XviD-FICEK9","amp;tr":["udp%3A%2F%2Ftracker.openbittorrent.com%3A80","udp%3A%2F%2Fopen.demonii.com%3A1337","udp%3A%2F%2Ftracker.coppersurfer.tk%3A6969","udp%3A%2F%2Fexodus.desync.com%3A6969"],"infoHash":"a830723efa79d052dbf995e08715a54c5079a4ef","infoHashBuffer":{"type":"Buffer","data":[168,48,114,62,250,121,208,82,219,249,149,224,135,21,165,76,80,121,164,239]},"announce":[],"urlList":[]}}